<svg width="100" height="34" viewBox="0 0 100 34" fill="none" xmlns="http://www.w3.org/2000/svg">
<g clip-path="url(#clip0_7502_2495)">
<path d="M5.77244 22.6585C5.6767 23.485 5.8555 24.32 6.28127 25.0347C6.9173 25.9964 8.18935 26.5612 9.84303 26.5612C12.3159 26.5612 13.9441 25.4672 14.1986 23.6711C14.2936 23.2366 14.2459 22.7831 14.0626 22.3779C13.8792 21.9727 13.57 21.6375 13.1809 21.4221C12.55 21.1015 11.7816 20.8776 8.55062 20.1042C5.68594 19.4631 4.71409 19.0866 3.64047 18.242C1.81889 16.8274 1.02513 14.6802 1.39148 12.075C2.08857 7.13434 6.51023 4.01526 12.8349 4.01526C16.9055 4.01526 19.8516 5.26696 21.2458 7.67878C21.9021 8.73713 22.1515 9.71408 22.3092 11.5306L15.3994 12.2684C15.3078 10.1822 14.2749 9.31719 11.8376 9.31719C9.87864 9.31719 8.27585 10.3755 8.07741 11.8613C7.9502 12.7619 8.33691 13.4336 9.29859 13.8966C9.899 14.1866 9.899 14.1866 13.5778 14.955C15.9489 15.4638 17.4143 16.0184 18.5235 16.7867C20.6352 18.2318 21.49 20.3841 21.0677 23.3404C20.8067 25.6166 19.7206 27.7183 18.0147 29.2478C15.898 31.0439 12.9265 31.9751 9.18665 31.9751C6.45427 31.9751 3.83892 31.4001 2.2463 30.4028C1.50621 29.9549 0.867186 29.3582 0.369694 28.6505C-0.127799 27.9428 -0.47292 27.1395 -0.643814 26.2915C-0.874104 25.3135 -0.971656 24.3088 -0.933843 23.3047L5.77244 22.6585Z" fill="url(#paint0_linear_7502_2495)"/>
<path d="M45.2928 26.607C46.1049 28.2469 47.0192 29.8341 48.0302 31.3594H39.6804C39.2245 29.9672 38.6754 28.6073 38.0369 27.2888L34.18 19.3257L30.4809 22.5669L29.911 26.6121C29.6716 28.1856 29.5356 29.7732 29.504 31.3645H22.6959C23.1034 29.8015 23.411 28.2142 23.6169 26.6121L26.0389 9.40369C26.2823 7.83055 26.42 6.24285 26.451 4.65129H33.2591C32.8484 6.21383 32.5391 7.80127 32.333 9.40369L31.5342 15.0872L38.8867 8.25376C40.1038 7.17029 41.2084 5.96676 42.1838 4.66147H50.8338C50.1724 5.23644 49.9129 5.49594 49.3989 5.9437L46.8548 8.1927L39.1513 15.2246L45.2928 26.607Z" fill="url(#paint1_linear_7502_2495)"/>
<path d="M67.4673 13.9577C67.2688 11.0319 65.7678 9.58686 63.0049 9.58686C59.0869 9.58686 56.3902 12.6703 55.632 17.9723C54.8739 23.2742 56.8227 26.3831 60.8068 26.3831C61.6582 26.3883 62.5006 26.2091 63.2762 25.8577C64.0518 25.5064 64.7421 24.9913 65.2997 24.3478C65.9667 23.5499 66.4295 22.6017 66.648 21.5849L73.1864 22.6026C72.1942 25.3349 71.2682 26.9072 69.6959 28.4795C67.3858 30.759 64.0988 31.9802 60.2114 31.9802C56.324 31.9802 53.1591 30.759 51.2053 28.4489C49.17 26.0422 48.3457 22.282 48.9512 17.9824C49.5567 13.6829 51.4342 9.92269 54.3193 7.41419C57.0426 5.18779 60.47 4.00441 63.9869 4.0763C68.1287 4.0763 71.1766 5.49083 72.8709 8.28427C73.7176 9.59835 74.1908 11.118 74.2397 12.6805L67.4673 13.9577Z" fill="url(#paint2_linear_7502_2495)"/>
<path d="M82.1061 22.6585C82.0104 23.485 82.1892 24.32 82.6149 25.0347C83.251 25.9964 84.523 26.5612 86.1767 26.5612C88.6496 26.5612 90.2778 25.4672 90.5322 23.6711C90.6256 23.2367 90.5772 22.7837 90.394 22.3789C90.2108 21.9741 89.9025 21.6387 89.5146 21.4221C88.8836 21.1015 88.1153 20.8776 84.8843 20.1042C82.0196 19.4631 81.0427 19.0866 79.9741 18.242C78.1475 16.8274 77.3588 14.6802 77.7251 12.075C78.4222 7.13434 82.8134 4.01526 89.1635 4.01526C93.2341 4.01526 96.1852 5.26696 97.5794 7.67878C98.2307 8.73713 98.48 9.71408 98.6429 11.5306L91.733 12.2684C91.6414 10.1822 90.6034 9.31719 88.1713 9.31719C86.2123 9.31719 84.6095 10.3755 84.4111 11.8613C84.2839 12.7619 84.6706 13.4336 85.6272 13.8966C86.2327 14.1866 86.2327 14.1866 89.9114 14.955C92.2826 15.4638 93.7429 16.0184 94.8572 16.7867C96.9637 18.2318 97.8186 20.3841 97.4013 23.3404C97.1404 25.6166 96.0542 27.7183 94.3484 29.2478C92.2317 31.0439 89.2601 31.9751 85.5152 31.9751C82.7879 31.9751 80.1726 31.4001 78.58 30.4028C77.8393 29.955 77.1996 29.3584 76.7013 28.6507C76.203 27.9431 75.8568 27.1398 75.6848 26.2915C75.4568 25.3131 75.361 24.3086 75.3998 23.3047L82.1061 22.6585Z" fill="url(#paint3_linear_7502_2495)"/>
</g>
<defs>
<linearGradient id="paint0_linear_7502_2495" x1="-0.941773" y1="14.3659" x2="94.7388" y2="43.3489" gradientUnits="userSpaceOnUse">
<stop stop-color="#14C49C"/>
<stop offset="1" stop-color="#B15FEF"/>
</linearGradient>
<linearGradient id="paint1_linear_7502_2495" x1="-0.941773" y1="14.3659" x2="94.7388" y2="43.3489" gradientUnits="userSpaceOnUse">
<stop stop-color="#14C49C"/>
<stop offset="1" stop-color="#B15FEF"/>
</linearGradient>
<linearGradient id="paint2_linear_7502_2495" x1="-0.941773" y1="14.3659" x2="94.7388" y2="43.3489" gradientUnits="userSpaceOnUse">
<stop stop-color="#14C49C"/>
<stop offset="1" stop-color="#B15FEF"/>
</linearGradient>
<linearGradient id="paint3_linear_7502_2495" x1="-0.941773" y1="14.3659" x2="94.7388" y2="43.3489" gradientUnits="userSpaceOnUse">
<stop stop-color="#14C49C"/>
<stop offset="1" stop-color="#B15FEF"/>
</linearGradient>
<clipPath id="clip0_7502_2495">
<rect width="100" height="34" fill="white"/>
</clipPath>
</defs>
</svg>
