<svg width="105" height="35" viewBox="0 0 105 35" fill="none" xmlns="http://www.w3.org/2000/svg">
<path fill-rule="evenodd" clip-rule="evenodd" d="M88.7475 21.8333C88.6567 22.6017 88.8262 23.378 89.2298 24.0426C89.8328 24.9367 91.0388 25.4618 92.6065 25.4618C94.9509 25.4618 96.4945 24.4447 96.7357 22.7748C96.8242 22.3709 96.7783 21.9498 96.6046 21.5734C96.4309 21.197 96.1387 20.8852 95.7709 20.6838C95.1728 20.3857 94.4444 20.1776 91.3812 19.4585C88.6654 18.8624 87.7393 18.5124 86.7263 17.7271C84.9945 16.4119 84.2468 14.4156 84.5942 11.9935C85.255 7.39993 89.418 4.5 95.4381 4.5C99.2971 4.5 102.095 5.66375 103.417 7.90611C104.034 8.8901 104.27 9.7984 104.425 11.4873L97.8741 12.1732C97.7872 10.2336 96.8032 9.4294 94.4974 9.4294C92.6403 9.4294 91.1208 10.4134 90.9326 11.7948C90.812 12.6321 91.1786 13.2566 92.0855 13.687C92.6595 13.9567 92.6595 13.9567 96.1472 14.671C98.395 15.1441 99.7795 15.6598 100.836 16.3741C102.833 17.7176 103.643 19.7187 103.248 22.4673C103 24.5836 101.971 26.5375 100.354 27.9596C98.3468 29.6296 95.5297 30.4953 91.9794 30.4953C89.3938 30.4953 86.9144 29.9607 85.4046 29.0335C84.7024 28.6171 84.096 28.0624 83.6235 27.4045C83.1511 26.7466 82.823 25.9997 82.6598 25.2111C82.4437 24.3014 82.3528 23.3675 82.3897 22.4341L88.7475 21.8333ZM38.879 29.9276H32.5933L35.2543 5.09134H42.439C42.0497 6.5441 41.7564 8.01999 41.5611 9.50982L40.8037 14.794L47.7741 8.44069C48.928 7.43335 49.9752 6.31438 50.8999 5.1008H59.1004C58.7636 5.38792 58.536 5.59109 58.3226 5.78155C58.1392 5.94525 57.965 6.10071 57.7401 6.29294L55.3282 8.38392L48.0249 14.9218L53.8473 25.5044C54.6172 27.029 55.484 28.5047 56.4425 29.9229H48.5266C48.0944 28.6285 47.5739 27.3641 46.9685 26.1383L43.3121 18.7347L39.8052 21.7482L39.2649 25.5091C39.038 26.9721 38.909 28.4481 38.879 29.9276ZM74.8694 13.7438C74.6812 11.0236 73.2582 9.68012 70.6389 9.68012C66.9246 9.68012 64.368 12.5469 63.6492 17.4763C62.9305 22.4057 64.778 25.2962 68.555 25.2962C69.3622 25.3011 70.1609 25.1344 70.8961 24.8078C71.6314 24.4811 72.2858 24.0022 72.8144 23.4039C73.4468 22.6621 73.8856 21.7805 74.0927 20.8351L80.2913 21.7813C79.3507 24.3217 78.4727 25.7835 76.9822 27.2453C74.7922 29.3646 71.676 30.5 67.9906 30.5C64.3053 30.5 61.3049 29.3646 59.4525 27.2169C57.523 24.9793 56.7415 21.4833 57.3156 17.4858C57.8896 13.4883 59.6696 9.99235 62.4047 7.66011C64.9865 5.59014 68.2358 4.48992 71.5699 4.55675C75.4965 4.55675 78.3859 5.8719 79.9922 8.46906C80.7949 9.6908 81.2435 11.1037 81.2898 12.5564L74.8694 13.7438Z" fill="#00D092"/>
<path fill-rule="evenodd" clip-rule="evenodd" d="M3.3879 0L30.2099 5L27.7966 29.9255L0 34.7177L3.3879 0ZM10.2382 24.5497C9.81706 23.8339 9.64019 22.9977 9.7349 22.1701L3.101 22.8172C3.0636 23.8227 3.1601 24.8288 3.3879 25.8083C3.55695 26.6575 3.89834 27.462 4.39047 28.1707C4.88259 28.8794 5.51472 29.4769 6.24682 29.9255C7.82224 30.9242 10.4094 31.5 13.1123 31.5C16.8117 31.5 19.7512 30.5675 21.845 28.7688C23.5325 27.2371 24.6069 25.1324 24.865 22.8529C25.2828 19.8924 24.4372 17.7369 22.3484 16.2898C21.2511 15.5204 19.8015 14.965 17.456 14.4554C13.8169 13.686 13.8169 13.686 13.223 13.3955C12.2717 12.9318 11.8892 12.2592 12.015 11.3573C12.2113 9.86943 13.7968 8.80955 15.7346 8.80955C18.1456 8.80955 19.1673 9.6758 19.2579 11.765L26.0932 11.0261C25.9371 9.20701 25.6905 8.22866 25.0412 7.16879C23.6621 4.7535 20.7478 3.5 16.7211 3.5C10.4647 3.5 6.09079 6.62357 5.40122 11.5713C5.03882 14.1803 5.82402 16.3306 7.62594 17.7471C8.68797 18.593 9.64933 18.9701 12.4831 19.6121C15.6792 20.3866 16.4393 20.6108 17.0634 20.9319C17.4483 21.1475 17.7542 21.4832 17.9356 21.889C18.1169 22.2948 18.1641 22.749 18.0701 23.1841C17.8184 24.9828 16.2077 26.0783 13.7615 26.0783C12.1257 26.0783 10.8674 25.5127 10.2382 24.5497Z" fill="url(#paint0_linear_8135_2975)"/>
<defs>
<linearGradient id="paint0_linear_8135_2975" x1="30" y1="13" x2="0.538933" y2="8.7575" gradientUnits="userSpaceOnUse">
<stop stop-color="#14C49C"/>
<stop offset="1" stop-color="#B15FEF"/>
</linearGradient>
</defs>
</svg>
