<svg width="180" height="180" viewBox="0 0 180 180" fill="none" xmlns="http://www.w3.org/2000/svg">
<path d="M0 64.125C0 41.6791 0 30.4562 4.36825 21.883C8.21068 14.3419 14.3419 8.21068 21.883 4.36825C30.4562 0 41.6791 0 64.125 0H115.875C138.321 0 149.544 0 158.117 4.36825C165.658 8.21068 171.789 14.3419 175.632 21.883C180 30.4562 180 41.6791 180 64.125V115.875C180 138.321 180 149.544 175.632 158.117C171.789 165.658 165.658 171.789 158.117 175.632C149.544 180 138.321 180 115.875 180H64.125C41.6791 180 30.4562 180 21.883 175.632C14.3419 171.789 8.21068 165.658 4.36825 158.117C0 149.544 0 138.321 0 115.875V64.125Z" fill="#2DBD96"/>
<path fill-rule="evenodd" clip-rule="evenodd" d="M90 131.597L48.4034 90L90 48.4034L131.597 90L90 131.597ZM90 78.4124C83.6119 78.4124 78.4124 83.612 78.4124 90C78.4124 96.3881 83.6119 101.588 90 101.588C96.3881 101.588 101.588 96.3881 101.588 90C101.588 83.612 96.3881 78.4124 90 78.4124ZM30.5762 84.0576C27.3079 87.3259 27.3079 92.6741 30.5762 95.9424L84.0576 149.424C87.3259 152.692 92.6741 152.692 95.9424 149.424L149.424 95.9424C152.692 92.6741 152.692 87.3259 149.424 84.0576L95.9424 30.5762C92.6741 27.3079 87.3259 27.3079 84.0576 30.5762L30.5762 84.0576Z" fill="white"/>
</svg>
